FFmpeg version SVN-r25716, Copyright (c) 2000-2010 the FFmpeg developers  built on Nov 10 2010 12:23:18 with gcc 4.1.2 20080704 (Red Hat 4.1.2-48)  configuration: --enable-libmp3lame --enable-shared --disable-mmx --arch=x86_64  libavutil     50.33. 0 / 50.33. 0  libavcore      0.12. 1 /  0.12. 1  libavcodec    52.94. 4 / 52.94. 4  libavformat   52.84. 0 / 52.84. 0  libavdevice   52. 2. 2 / 52. 2. 2  libavfilter    1.59. 0 /  1.59. 0  libswscale     0.12. 0 /  0.12. 0Seems stream 0 codec frame rate differs from container frame rate: 5994.00 (5994/1) -> 29.97 (2997/100)Input #0, mov,mp4,m4a,3gp,3g2,mj2, from '/RAID10/data/converted_video_files/25615.mov':  Metadata:    major_brand     : qt      minor_version   : 537199360    compatible_brands: qt    Duration: 00:00:08.20, start: 0.000000, bitrate: 1749 kb/s    Stream #0.0(eng): Video: h264, yuv420p, 720x480, 1744 kb/s, 29.97 fps, 29.97 tbr, 2997 tbn, 5994 tbc[buffer @ 0x7f3e430] w:720 h:480 pixfmt:yuv420pOutput #0, flv, to '/RAID10/data/converted_video_files/25615.flv':  Metadata:    encoder         : Lavf52.84.0    Stream #0.0(eng): Video: flv, yuv420p, 720x480, q=2-31, 600 kb/s, 1k tbn, 24 tbcStream mapping:  Stream #0.0 -> #0.0Press [q] to stop encodingframe=   43 fps=  0 q=2.0 size=     127kB time=1.79 bitrate= 580.7kbits/s dup=0 drop=10    frame=   94 fps= 92 q=2.0 size=     254kB time=3.92 bitrate= 530.6kbits/s dup=0 drop=23    frame=  144 fps= 94 q=2.0 size=     373kB time=6.00 bitrate= 508.7kbits/s dup=0 drop=35    frame=  185 fps= 91 q=2.0 size=     489kB time=7.71 bitrate= 520.1kbits/s dup=0 drop=45    frame=  197 fps= 90 q=2.0 Lsize=     520kB time=8.21 bitrate= 518.7kbits/s dup=0 drop=49    video:516kB audio:0kB global headers:0kB muxing overhead 0.635774%